<svg width="293" height="297" viewBox="0 0 293 297" fill="none" xmlns="http://www.w3.org/2000/svg">
<g filter="url(#filter0_ddddd_57_2)">
<circle cx="119" cy="118" r="113" fill="#40418D"/>
</g>
<path d="M59 103.5V184L109 144.5L72 114.16L59 103.5Z" fill="#3C71E0"/>
<path d="M179.5 103.5L166.5 113.951L128.5 144.5L128.633 144.606L179.5 185V103.5Z" fill="#3C71E0"/>
<path d="M109 144.5L59 184V184.5L179.5 185L128.633 144.606L119.5 152L72 114.16L109 144.5Z" fill="#3C71E0"/>
<path d="M179.5 103.5L166.5 92.0294V113.951L179.5 103.5Z" fill="#3C71E0"/>
<path d="M120 51L94.4381 73H144.933L120 51Z" fill="#3C71E0"/>
<path d="M59 103.5L72 114.16V92.3115L59 103.5Z" fill="#3C71E0"/>
<path d="M128.5 144.5L166.5 113.951V92.0294L144.933 73H94.4381L72 92.3115V114.16L119.5 152L128.633 144.606L128.5 144.5Z" fill="#3C71E0"/>
<path d="M94.4381 73H72V92.3115L94.4381 73Z" fill="#3C71E0"/>
<path d="M166.5 92.0294V73H144.933L166.5 92.0294Z" fill="#3C71E0"/>
<path d="M59 103.5V184L109 144.5L72 114.16L59 103.5Z" fill="#349AF6"/>
<path d="M179.5 103.5L166.5 113.951L128.5 144.5L128.633 144.606L179.5 185V103.5Z" fill="#349AF6"/>
<path d="M179.5 103.5L166.5 92.0294V113.951L179.5 103.5Z" fill="#349AF6"/>
<path d="M120 51L94.4381 73H144.933L120 51Z" fill="#349AF6"/>
<path d="M59 103.5L72 114.16V92.3115L59 103.5Z" fill="#349AF6"/>
<path d="M128.5 144.5L166.5 113.951V92.0294L144.933 73H94.4381L72 92.3115V114.16L119.5 152L128.633 144.606L128.5 144.5Z" fill="#349AF6"/>
<path d="M94.4381 73H72V92.3115L94.4381 73Z" fill="#349AF6"/>
<path d="M166.5 92.0294V73H144.933L166.5 92.0294Z" fill="#349AF6"/>
<path d="M179.5 103.5L166.5 92.0294V113.951L179.5 103.5Z" fill="#2A91BE"/>
<path d="M179.5 103.5L166.5 92.0294V113.951L179.5 103.5Z" fill="#4477E3"/>
<path d="M120 51L94.4381 73H144.933L120 51Z" fill="#2A91BE"/>
<path d="M120 51L94.4381 73H144.933L120 51Z" fill="#4477E3"/>
<path d="M59 103.5L72 114.16V92.3115L59 103.5Z" fill="#2A91BE"/>
<path d="M59 103.5L72 114.16V92.3115L59 103.5Z" fill="#4477E3"/>
<path d="M128.5 144.5L166.5 113.951V92.0294L144.933 73H94.4381L72 92.3115V114.16L119.5 152L128.633 144.606L128.5 144.5Z" fill="#2A91BE"/>
<path d="M128.5 144.5L166.5 113.951V92.0294L144.933 73H94.4381L72 92.3115V114.16L119.5 152L128.633 144.606L128.5 144.5Z" fill="#4477E3"/>
<path d="M94.4381 73H72V92.3115L94.4381 73Z" fill="#2A91BE"/>
<path d="M94.4381 73H72V92.3115L94.4381 73Z" fill="#4477E3"/>
<path d="M166.5 92.0294V73H144.933L166.5 92.0294Z" fill="#2A91BE"/>
<path d="M166.5 92.0294V73H144.933L166.5 92.0294Z" fill="#4477E3"/>
<path d="M128.5 144.5L166.5 113.951V92.0294L144.933 73H94.4381L72 92.3115V114.16L119.5 152L128.633 144.606L128.5 144.5Z" fill="#2A91BE"/>
<path d="M128.5 144.5L166.5 113.951V92.0294L144.933 73H94.4381L72 92.3115V114.16L119.5 152L128.633 144.606L128.5 144.5Z" fill="white"/>
<path d="M94.4381 73H72V92.3115L94.4381 73Z" fill="#2A91BE"/>
<path d="M94.4381 73H72V92.3115L94.4381 73Z" fill="white"/>
<path d="M166.5 92.0294V73H144.933L166.5 92.0294Z" fill="#2A91BE"/>
<path d="M166.5 92.0294V73H144.933L166.5 92.0294Z" fill="white"/>
<path d="M119.134 92.0012C119.768 92.0047 120.115 92.0153 120.356 92.0348C120.542 92.0508 120.861 92.0844 121.065 92.1092C121.269 92.1341 121.625 92.1854 121.853 92.2244C122.082 92.2634 122.433 92.3307 122.633 92.375C122.833 92.4175 123.136 92.4902 123.306 92.5345C123.476 92.5788 123.748 92.655 123.909 92.7028C124.07 92.7524 124.322 92.8322 124.467 92.8818C124.614 92.9314 124.864 93.0217 125.025 93.0838C125.186 93.144 125.413 93.2344 125.53 93.2822C125.647 93.33 125.886 93.4363 126.062 93.5143C126.237 93.594 126.556 93.75 126.77 93.8598C126.985 93.9697 127.222 94.0972 127.298 94.1433C127.373 94.1876 127.438 94.2248 127.444 94.2248C127.449 94.2248 127.497 94.2532 127.55 94.2868C127.603 94.3205 127.651 94.3488 127.656 94.3488C127.661 94.3488 127.807 94.4374 127.98 94.5455C128.152 94.6536 128.418 94.8272 128.569 94.93C128.719 95.0328 128.914 95.1692 129.003 95.233C129.091 95.2968 129.265 95.4279 129.393 95.5253C129.52 95.6228 129.715 95.7787 129.827 95.8709C129.938 95.9648 130.059 96.064 130.092 96.0941C130.126 96.1225 130.193 96.1827 130.241 96.227C130.291 96.2713 130.341 96.3138 130.351 96.3244C130.362 96.3351 130.457 96.4219 130.564 96.5176C130.67 96.615 130.9 96.8383 131.076 97.0155C131.251 97.1926 131.49 97.4442 131.607 97.5754C131.726 97.7065 131.91 97.9173 132.017 98.0431C132.125 98.1689 132.304 98.3904 132.415 98.5321C132.527 98.6757 132.678 98.8741 132.75 98.9733C132.823 99.0743 132.922 99.2125 132.97 99.2816C133.02 99.3507 133.128 99.512 133.211 99.6378C133.296 99.7636 133.404 99.9319 133.454 100.01C133.503 100.088 133.636 100.315 133.751 100.515C133.866 100.715 134.067 101.085 134.194 101.339C134.322 101.592 134.474 101.904 134.531 102.03C134.588 102.156 134.708 102.444 134.797 102.668C134.887 102.891 135.025 103.266 135.105 103.5C135.185 103.734 135.295 104.076 135.348 104.262C135.401 104.448 135.472 104.707 135.505 104.838C135.539 104.969 135.592 105.205 135.628 105.361C135.661 105.517 135.718 105.804 135.752 105.999C135.787 106.194 135.83 106.465 135.849 106.601C135.869 106.738 135.897 106.957 135.911 107.088C135.927 107.219 135.952 107.483 135.97 107.673C135.994 107.948 136 108.217 136 108.993C136.002 109.787 135.994 110.035 135.97 110.331C135.952 110.531 135.918 110.857 135.893 111.057C135.87 111.257 135.823 111.592 135.787 111.801C135.753 112.01 135.69 112.351 135.645 112.554C135.601 112.758 135.537 113.038 135.504 113.175C135.47 113.311 135.41 113.531 135.373 113.662C135.334 113.793 135.268 114.013 135.224 114.149C135.179 114.286 135.109 114.5 135.066 114.627C135.022 114.755 134.935 114.989 134.871 115.15C134.807 115.311 134.708 115.554 134.651 115.691C134.593 115.827 134.515 116.006 134.476 116.089C134.439 116.173 134.334 116.387 134.246 116.568C134.155 116.748 134.017 117.016 133.937 117.161C133.858 117.308 133.739 117.516 133.675 117.622C133.611 117.728 133.509 117.9 133.445 118.003C133.381 118.106 133.273 118.272 133.206 118.375C133.138 118.478 133.046 118.612 133.002 118.676C132.958 118.74 132.881 118.848 132.832 118.915C132.784 118.983 132.672 119.135 132.584 119.252C132.497 119.369 132.36 119.544 132.282 119.642C132.204 119.739 132.1 119.867 132.05 119.924C132.002 119.982 131.9 120.101 131.822 120.189C131.746 120.278 131.595 120.446 131.487 120.563C131.379 120.68 131.154 120.912 130.987 121.077C130.821 121.242 130.566 121.486 130.418 121.617C130.271 121.748 130.124 121.88 130.091 121.91C130.057 121.938 129.954 122.025 129.862 122.101C129.77 122.177 129.658 122.269 129.614 122.307C129.57 122.344 129.362 122.502 129.153 122.656C128.944 122.812 128.629 123.035 128.453 123.152C128.278 123.269 128.042 123.421 127.931 123.49C127.819 123.559 127.631 123.671 127.514 123.74C127.397 123.807 127.219 123.908 127.116 123.965C127.013 124.02 126.73 124.164 126.487 124.284C126.242 124.404 125.904 124.562 125.734 124.635C125.564 124.707 125.284 124.821 125.114 124.886C124.943 124.952 124.715 125.037 124.609 125.072C124.502 125.11 124.314 125.172 124.192 125.211C124.07 125.251 123.843 125.321 123.687 125.365C123.531 125.411 123.244 125.485 123.049 125.533C122.854 125.581 122.599 125.639 122.482 125.664C122.365 125.689 122.107 125.737 121.907 125.771C121.706 125.806 121.387 125.854 121.198 125.879C121.008 125.902 120.716 125.934 120.551 125.95C120.386 125.964 120.113 125.983 119.949 125.994C119.784 126.003 119.357 126.012 119.001 126.012C118.645 126.012 118.219 126.003 118.053 125.994C117.886 125.983 117.617 125.964 117.45 125.95C117.284 125.934 116.999 125.902 116.813 125.879C116.626 125.854 116.352 125.815 116.201 125.79C116.051 125.765 115.827 125.724 115.705 125.7C115.583 125.675 115.356 125.627 115.2 125.592C115.044 125.558 114.729 125.478 114.5 125.416C114.272 125.352 113.873 125.232 113.614 125.145C113.356 125.058 112.989 124.927 112.799 124.853C112.61 124.777 112.342 124.668 112.206 124.608C112.069 124.55 111.75 124.399 111.497 124.275C111.244 124.149 110.905 123.974 110.744 123.885C110.583 123.795 110.305 123.63 110.124 123.519C109.943 123.407 109.727 123.271 109.642 123.216C109.557 123.161 109.438 123.079 109.376 123.037C109.314 122.992 109.22 122.929 109.167 122.891C109.114 122.856 109.024 122.792 108.969 122.75C108.912 122.707 108.813 122.631 108.747 122.583C108.682 122.535 108.508 122.399 108.361 122.282C108.216 122.165 108.031 122.014 107.953 121.947C107.875 121.88 107.767 121.784 107.714 121.736C107.661 121.688 107.521 121.561 107.404 121.453C107.287 121.346 107.057 121.121 106.892 120.955C106.729 120.788 106.472 120.515 106.325 120.351C106.176 120.186 105.98 119.957 105.887 119.846C105.795 119.734 105.661 119.566 105.588 119.473C105.514 119.381 105.421 119.261 105.382 119.208C105.343 119.155 105.267 119.05 105.214 118.977C105.161 118.905 105.094 118.813 105.067 118.774C105.04 118.735 104.939 118.588 104.846 118.446C104.75 118.304 104.624 118.113 104.567 118.021C104.509 117.928 104.397 117.744 104.321 117.613C104.243 117.482 104.126 117.275 104.059 117.152C103.992 117.03 103.855 116.768 103.756 116.568C103.657 116.367 103.52 116.08 103.455 115.93C103.387 115.779 103.274 115.512 103.203 115.336C103.134 115.161 103.031 114.893 102.978 114.743C102.925 114.592 102.843 114.356 102.799 114.22C102.755 114.084 102.679 113.828 102.629 113.653C102.578 113.478 102.503 113.191 102.461 113.015C102.418 112.84 102.354 112.553 102.319 112.377C102.283 112.202 102.232 111.915 102.204 111.739C102.174 111.564 102.131 111.257 102.108 111.057C102.083 110.857 102.05 110.531 102.032 110.331C102.007 110.04 102 109.776 102 109.002C102 108.226 102.007 107.965 102.032 107.673C102.05 107.473 102.087 107.118 102.115 106.885C102.145 106.651 102.197 106.296 102.23 106.096C102.266 105.896 102.33 105.57 102.374 105.37C102.418 105.169 102.478 104.911 102.507 104.794C102.537 104.677 102.604 104.434 102.656 104.253C102.709 104.073 102.796 103.791 102.852 103.624C102.907 103.458 103.006 103.18 103.072 103.004C103.139 102.829 103.224 102.609 103.263 102.517C103.301 102.425 103.382 102.234 103.444 102.092C103.506 101.95 103.646 101.656 103.756 101.436C103.864 101.216 104.027 100.906 104.117 100.745C104.208 100.584 104.353 100.334 104.442 100.187C104.53 100.042 104.686 99.7937 104.791 99.6378C104.893 99.4819 105.062 99.2391 105.163 99.0974C105.262 98.9556 105.425 98.7359 105.522 98.6101C105.62 98.4843 105.776 98.2876 105.87 98.176C105.962 98.0644 106.13 97.8677 106.242 97.7419C106.355 97.6161 106.571 97.3805 106.724 97.2192C106.876 97.058 107.151 96.7869 107.335 96.615C107.519 96.4432 107.737 96.2447 107.82 96.1721C107.904 96.0994 108.038 95.9842 108.122 95.9151C108.205 95.846 108.391 95.6954 108.538 95.5803C108.683 95.4651 108.963 95.2578 109.158 95.1196C109.353 94.9814 109.624 94.7971 109.761 94.7085C109.897 94.6199 110.113 94.487 110.239 94.4109C110.365 94.3347 110.597 94.2 110.753 94.1132C110.909 94.0264 111.244 93.8527 111.497 93.7287C111.75 93.6047 112.069 93.4541 112.206 93.3956C112.342 93.3371 112.542 93.2539 112.649 93.2096C112.755 93.1653 112.987 93.0784 113.163 93.0147C113.338 92.9509 113.593 92.864 113.73 92.8198C113.866 92.7755 114.057 92.7152 114.155 92.6869C114.252 92.6567 114.437 92.6054 114.562 92.5699C114.688 92.5363 114.897 92.4831 115.023 92.453C115.149 92.4229 115.381 92.3697 115.537 92.3378C115.693 92.3041 115.992 92.2492 116.201 92.2156C116.41 92.1801 116.742 92.1323 116.937 92.1092C117.131 92.0844 117.459 92.0525 117.663 92.0384C117.867 92.0224 118.083 92.0065 118.141 92.0029C118.2 91.9994 118.646 91.9994 119.134 92.0012Z" fill="#5CCF93"/>
<path d="M126.94 98.7983L127.247 99.112C127.415 99.2838 128.308 100.203 130.907 102.881L130.689 103.102C130.571 103.224 127 106.897 122.757 111.267C118.513 115.636 115.035 119.208 115.028 119.205C115.021 119.201 113.448 117.585 111.53 115.611C109.613 113.637 107.831 111.802 107.094 111.04L108.603 109.502C109.433 108.657 110.329 107.744 111.08 106.982L113.052 109.011C114.135 110.127 115.028 111.04 115.037 111.04C115.044 111.04 117.725 108.285 120.994 104.918L126.94 98.7983Z" fill="white"/>
<circle cx="119" cy="109" r="21.5" stroke="#5DCD90" stroke-width="3"/>
<defs>
<filter id="filter0_ddddd_57_2" x="0" y="0" width="293" height="297" filterUnits="userSpaceOnUse" color-interpolation-filters="sRGB">
<feFlood flood-opacity="0" result="BackgroundImageFix"/>
<feColorMatrix in="SourceAlpha" type="matrix" values="0 0 0 0 0 0 0 0 0 0 0 0 0 0 0 0 0 0 127 0" result="hardAlpha"/>
<feOffset/>
<feColorMatrix type="matrix" values="0 0 0 0 0 0 0 0 0 0 0 0 0 0 0 0 0 0 0.1 0"/>
<feBlend mode="normal" in2="BackgroundImageFix" result="effect1_dropShadow_57_2"/>
<feColorMatrix in="SourceAlpha" type="matrix" values="0 0 0 0 0 0 0 0 0 0 0 0 0 0 0 0 0 0 127 0" result="hardAlpha"/>
<feOffset dx="2" dy="3"/>
<feGaussianBlur stdDeviation="4"/>
<feColorMatrix type="matrix" values="0 0 0 0 0 0 0 0 0 0 0 0 0 0 0 0 0 0 0.1 0"/>
<feBlend mode="normal" in2="effect1_dropShadow_57_2" result="effect2_dropShadow_57_2"/>
<feColorMatrix in="SourceAlpha" type="matrix" values="0 0 0 0 0 0 0 0 0 0 0 0 0 0 0 0 0 0 127 0" result="hardAlpha"/>
<feOffset dx="9" dy="11"/>
<feGaussianBlur stdDeviation="7"/>
<feColorMatrix type="matrix" values="0 0 0 0 0 0 0 0 0 0 0 0 0 0 0 0 0 0 0.09 0"/>
<feBlend mode="normal" in2="effect2_dropShadow_57_2" result="effect3_dropShadow_57_2"/>
<feColorMatrix in="SourceAlpha" type="matrix" values="0 0 0 0 0 0 0 0 0 0 0 0 0 0 0 0 0 0 127 0" result="hardAlpha"/>
<feOffset dx="21" dy="24"/>
<feGaussianBlur stdDeviation="9.5"/>
<feColorMatrix type="matrix" values="0 0 0 0 0 0 0 0 0 0 0 0 0 0 0 0 0 0 0.05 0"/>
<feBlend mode="normal" in2="effect3_dropShadow_57_2" result="effect4_dropShadow_57_2"/>
<feColorMatrix in="SourceAlpha" type="matrix" values="0 0 0 0 0 0 0 0 0 0 0 0 0 0 0 0 0 0 127 0" result="hardAlpha"/>
<feOffset dx="38" dy="43"/>
<feGaussianBlur stdDeviation="11.5"/>
<feColorMatrix type="matrix" values="0 0 0 0 0 0 0 0 0 0 0 0 0 0 0 0 0 0 0.01 0"/>
<feBlend mode="normal" in2="effect4_dropShadow_57_2" result="effect5_dropShadow_57_2"/>
<feBlend mode="normal" in="SourceGraphic" in2="effect5_dropShadow_57_2" result="shape"/>
</filter>
</defs>
</svg>
